<mxfile host="app.diagrams.net" modified="2024-05-28T16:37:08.278Z" agent="Mozilla/5.0 (Windows NT 10.0; Win64; x64) AppleWebKit/537.36 (KHTML, like Gecko) Chrome/125.0.0.0 Safari/537.36" version="24.4.9" etag="Y8bcKyHWE0YTQsgDQxiZ" type="github">
  <diagram name="PÃ¡gina-1" id="kDLiNMxJz4FhLHxrmS0X">
    <mxGraphModel>
      <root>
        <mxCell id="0" />
        <mxCell id="1" parent="0" />
      </root>
    </mxGraphModel>
  </diagram>
</mxfile>
